<?xml version="1.0" encoding="UTF-8" standalone="no"?>
<!-- Created with Inkscape (http://www.inkscape.org/) -->

<svg
   xmlns:dc="http://purl.org/dc/elements/1.1/"
   xmlns:cc="http://creativecommons.org/ns#"
   xmlns:rdf="http://www.w3.org/1999/02/22-rdf-syntax-ns#"
   xmlns:svg="http://www.w3.org/2000/svg"
   xmlns="http://www.w3.org/2000/svg"
   xmlns:sodipodi="http://sodipodi.sourceforge.net/DTD/sodipodi-0.dtd"
   xmlns:inkscape="http://www.inkscape.org/namespaces/inkscape"
   version="1.1"
   id="svg10"
   xml:space="preserve"
   width="43.444862"
   height="42.374569"
   viewBox="0 0 43.444863 42.374569"
   sodipodi:docname="gh_logo_reg.svg"
   style="enable-background:new"
   inkscape:version="0.92.3 (2405546, 2018-03-11)"><metadata
     id="metadata16"><rdf:RDF><cc:Work
         rdf:about=""><dc:format>image/svg+xml</dc:format><dc:type
           rdf:resource="http://purl.org/dc/dcmitype/StillImage" /><dc:title></dc:title></cc:Work></rdf:RDF></metadata><defs
     id="defs14"></defs><sodipodi:namedview
     pagecolor="#ffffff"
     bordercolor="#666666"
     borderopacity="1"
     objecttolerance="10"
     gridtolerance="10"
     guidetolerance="10"
     inkscape:pageopacity="0"
     inkscape:pageshadow="2"
     inkscape:window-width="1920"
     inkscape:window-height="1017"
     id="namedview12"
     showgrid="false"
     inkscape:zoom="2.8284271"
     inkscape:cx="134.36732"
     inkscape:cy="-16.167799"
     inkscape:window-x="963"
     inkscape:window-y="2152"
     inkscape:window-maximized="1"
     inkscape:current-layer="g18" /><g
     id="g18"
     inkscape:groupmode="layer"
     inkscape:label="GitHub-Mark"
     transform="matrix(1.3333333,0,0,-1.3333333,-4.2534973,751.28876)"><g
       id="g22"
       transform="translate(-49.600605,64.14335)"><g
         transform="translate(105.08338,479.26073)"
         id="g30"><path
           style="fill:white;fill-opacity:1;fill-rule:evenodd;stroke:none"
           d="M -36,20.062501 H -49.069488 -52.288 c 0.0035,-1.049302 0.0044,-2.118494 0.0039,-3.200086 -0.0022,-4.667899 -0.02947,-9.5667651 0.0266,-14.0945001 V -11.684499 h 11.109531 c 1.761803,-0.210072 1.100532,2.9046679 0.880217,3.5128879 -1.978395,-0.493451 -4.529541,0.122141 -5.277217,2.227112 -0.142232,1.485481 -2.164848,2.140564 -2.307625,3.256625 1.688087,0.53016 2.880839,-1.146844 3.688447,-2.352482 0.958247,-1.155065 3.489668,-1.471082 4.225986,-0.184924 -0.03522,1.011149 1.79718,2.104092 -0.05271,1.943577 -2.639685,0.323921 -5.255563,1.995399 -5.9638,4.669747 -0.738127,2.531614 -0.70144,5.602438 1.239699,7.607457 -0.407112,1.2900461 -0.756472,4.0040251 0.755953,4.3384211 1.742866,0.09395 3.022535,-1.855753 4.623068,-1.51331 2.438674,0.536102 5.007443,0.47714 7.415948,-0.184111 1.291868,0.751925 3.160605,2.154821 4.554157,1.461458 0.981545,-1.528927 -0.340788,-3.5210161 0.625097,-4.7764271 1.622662,-2.354829 1.372535,-5.578562 0.230002,-8.08223203 -1.187903,-2.44481597 -3.994137,-3.43169297 -6.535256,-3.65279897 1.59365,-1.524421 0.979964,-3.912313 1.096,-5.867125 0.0017,-0.563621 -0.04349,-1.0803679 0.198438,-1.6732859 0.190324,-0.46645 0.63565,-0.889076 1.785772,-0.730589 h 10.25679 V 4.1462039 20.062501 Z"
           id="path32"
           inkscape:connector-curvature="0"
           sodipodi:nodetypes="cccscccccccccccccccccccsccccc" /></g></g></g></svg>