<?xml version="1.0" encoding="UTF-8" standalone="no"?>
<svg
   xmlns:dc="http://purl.org/dc/elements/1.1/"
   xmlns:cc="http://creativecommons.org/ns#"
   xmlns:rdf="http://www.w3.org/1999/02/22-rdf-syntax-ns#"
   xmlns:svg="http://www.w3.org/2000/svg"
   xmlns="http://www.w3.org/2000/svg"
   viewBox="0 0 671.95081 671.7298"
   height="671.7298"
   width="671.95081"
   id="svg5142"
   version="1.1">
  <metadata
     id="metadata5148">
    <rdf:RDF>
      <cc:Work
         rdf:about="">
        <dc:format>image/svg+xml</dc:format>
        <dc:type
           rdf:resource="http://purl.org/dc/dcmitype/StillImage" />
        <dc:title></dc:title>
      </cc:Work>
    </rdf:RDF>
  </metadata>
  <defs
     id="defs5146" />
  <path
     id="path5152"
     d="m 211.31097,670.50911 c -31.771,-1.2645 -54.2587,-4.0702 -73.69881,-9.1954 C 72.427656,644.12861 26.595886,597.78671 10.094666,532.37679 2.0008757,500.29349 -0.00648428,461.37139 1.5717633e-5,336.64433 0.00701572,208.32043 1.9989057,170.93299 10.586106,137.97766 27.613346,72.631716 74.007546,26.636536 139.57851,10.094676 171.66181,2.0008857 210.58391,-0.00647433 335.31097,1.5669412e-5 463.63491,0.00701567 501.02231,1.9989157 533.97761,10.586106 c 65.346,17.02724 111.3412,63.42145 127.883,128.992424 8.0805,32.03064 10.0902,71.14724 10.0902,196.39913 0,127.59197 -2.0034,165.07931 -10.5816,198.00005 -17.0273,65.3459 -63.4215,111.3411 -128.9924,127.8829 -19.6141,4.9481 -40.146,7.2813 -77.0658,8.7574 -38.4231,1.5363 -204.52505,1.4621 -244.00004,-0.1089 z m 206.00004,-59.8481 c 65.14,-1.3053 82.9048,-2.8008 103.226,-8.6896 22.3369,-6.473 35.3724,-13.8237 50.5582,-28.5096 20.4762,-19.8023 31.4062,-43.72519 36.2343,-79.30784 5.2832,-38.93622 5.2832,-277.4164 0,-316.35262 -3.3114,-24.40504 -10.8053,-46.58603 -20.7463,-61.40695 -6.1217,-9.12673 -20.5977,-23.730974 -29.756,-30.019464 -15.8497,-10.88323 -37.2022,-18.29307 -62.6733,-21.74919 -38.9362,-5.28319 -277.41636,-5.28319 -316.35258,0 -25.47104,3.45612 -46.82351,10.86596 -62.6733,21.74919 -9.15822,6.28849 -23.634274,20.892734 -29.755944,30.019464 -9.94102,14.82092 -17.43487,37.00191 -20.74635,61.40695 -5.28318,38.93622 -5.28318,277.4164 0,316.35262 3.45612,25.47104 10.86596,46.82354 21.7492,62.67334 6.28848,9.1582 20.892714,23.6342 30.019444,29.7559 15.14865,10.1609 37.16911,17.4915 62.7671,20.8953 27.41524,3.6454 139.97944,5.1497 238.14953,3.1825 z m -112.1044,-104.7524 c -70.8578,-12.83139 -126.86172,-69.22564 -139.24053,-140.21102 -2.56391,-14.70256 -2.56391,-44.7373 0,-59.43986 12.46761,-71.49455 68.79708,-127.82402 140.29163,-140.29163 14.70256,-2.56391 44.7373,-2.56391 59.43986,0 71.49454,12.46761 127.82404,68.79708 140.29164,140.29163 2.5639,14.70256 2.5639,44.7373 0,59.43986 -12.4676,71.49455 -68.7971,127.82402 -140.29164,140.29163 -14.18505,2.47367 -46.62437,2.43043 -60.49096,-0.0807 z m 56.77103,-61.2331 c 41.87457,-10.97096 71.65007,-40.78877 82.79857,-82.91626 1.7126,-6.47126 2.4122,-13.94887 2.4122,-25.78159 0,-11.83272 -0.6996,-19.31033 -2.4122,-25.78159 -11.1766,-42.23373 -40.7832,-71.84036 -83.01698,-83.01702 -12.5684,-3.32608 -38.99478,-3.32608 -51.56318,0 -14.06672,3.72258 -24.56772,8.39636 -36.21841,16.12005 -23.28723,15.43797 -39.20041,38.18531 -46.79861,66.89697 -3.32608,12.5684 -3.32608,38.99478 0,51.56318 10.48701,39.62773 38.01426,68.96281 76.13194,81.13185 16.54024,5.28047 42.32886,6.06485 58.66667,1.78441 z M 505.97761,196.14145 c -11.6757,-3.09307 -21.2391,-10.88382 -26.9969,-21.99286 -2.9712,-5.73262 -3.5439,-8.56134 -3.5439,-17.50426 0,-12.44175 3.4322,-20.63294 12.0923,-28.85864 8.5058,-8.07913 15.6304,-10.97714 27.1152,-11.02928 16.9473,-0.0769 30.6035,8.60292 37.5834,23.88792 4.4437,9.73104 4.2051,24.19869 -0.5496,33.33333 -4.1404,7.95443 -11.5716,15.31861 -19.4225,19.24731 -6.2525,3.12882 -19.8005,4.63246 -26.278,2.91648 z"
     style="fill:white;stroke-width:1.33333337" />
</svg>
